<svg width="80" height="80" viewBox="0 0 80 80" fill="none" xmlns="http://www.w3.org/2000/svg">
<path d="M79.7221 44.3643C79.7031 44.5366 79.6841 44.7089 79.6628 44.8804C79.6415 45.052 79.6194 45.2235 79.5966 45.3942C79.5276 45.9073 79.4485 46.4173 79.3593 46.9243C79.3296 47.0928 79.2984 47.2613 79.2672 47.429C79.2044 47.766 79.1367 48.1012 79.0641 48.4346C78.0196 53.2761 76.0756 57.8797 73.3326 62.0071C66.1764 72.7843 53.9115 79.8943 39.9817 79.8943C35.4346 79.8997 30.92 79.1297 26.6329 77.6174C25.8357 77.3259 25.0401 77.0064 24.246 76.6588C17.076 73.5144 11.2958 68.6609 7.18141 62.8146C7.1198 62.7281 7.05971 62.6416 7.00038 62.5543C4.92856 59.5452 3.28246 56.2655 2.1086 52.8078C2.07057 52.6954 2.03254 52.5801 1.99526 52.4693C0.823246 48.9074 0.162026 45.1981 0.03125 41.4514C0.0388566 41.6283 0.0472238 41.8059 0.0563516 41.9827C0.0563516 42.0047 0.0563516 42.026 0.0563516 42.048C0.0624369 42.1565 0.0692828 42.2651 0.075368 42.3736C0.075368 42.3986 0.075368 42.4237 0.0806926 42.4495C0.0898205 42.5922 0.099709 42.7333 0.110358 42.8737C0.110358 42.8958 0.110358 42.9178 0.115683 42.9398C0.12405 43.0536 0.133178 43.1675 0.143827 43.2798C0.149912 43.3557 0.156758 43.4316 0.164365 43.5075C0.448396 46.5532 1.08944 49.5551 2.07437 52.4518L6.41543 48.2532C7.97402 46.4317 9.53793 44.6102 11.0296 42.7356C16.215 36.2025 21.1805 29.5047 24.6179 21.8217C25.6205 19.5813 26.2685 17.1761 27.1053 14.79H32.7463C32.8863 15.637 32.9745 16.4066 33.1472 17.1579C34.2554 22.01 35.3614 26.8589 36.5252 31.6958C36.6774 32.3333 37.1604 32.8896 37.6396 33.7556C38.938 32.01 40.06 30.6014 41.0694 29.1168C44.5243 24.0402 47.4703 18.71 48.8912 12.6133H55.9554C57.4532 15.6939 58.8976 18.7874 60.4433 21.8286C64.3462 29.5107 68.4895 37.0502 74.145 43.5993C75.4533 45.1172 77.1404 46.5888 78.734 48.1136L79.0383 48.4081C79.2878 47.4973 79.3737 46.56 79.5388 45.5802C79.6095 45.1795 79.6666 44.7787 79.7221 44.3643Z" fill="#FFFFFD"/>
<path d="M14.0209 62.7286C13.7866 62.6626 13.5539 62.5966 13.3188 62.5321V62.5609C13.547 62.6292 13.7714 62.6937 13.9981 62.759L14.065 62.7939C14.0452 62.7711 14.0323 62.7499 14.0209 62.7286ZM13.3066 62.5283C13.3107 62.5277 13.3148 62.5277 13.3188 62.5283L13.3257 62.4668L13.3066 62.5283Z" fill="white"/>
<path d="M54.1554 6.37579C53.9622 6.29458 53.7682 6.21413 53.5742 6.13672C53.7689 6.2111 53.9629 6.29155 54.1554 6.37579Z" fill="white"/>
<path d="M15.5723 8.27289L15.7563 8.13248L15.7716 8.12109L15.5723 8.27289Z" fill="black"/>
<path d="M79.7821 43.8618C79.7631 44.0295 79.7433 44.1965 79.7213 44.3627C79.7403 44.1965 79.757 44.031 79.7715 43.8633C79.8952 42.5943 79.9573 41.3086 79.9578 40.0063C79.9578 17.9767 62.0596 0.118398 39.9808 0.118398C18.4664 0.118398 0.921154 17.0766 0.0387934 38.3274C0.0154667 38.884 0.00380328 39.4441 0.00380328 40.0078C0.00380328 40.4849 0.012424 40.9603 0.0296656 41.4339C0.0251016 41.2327 0.0152131 41.0324 0.0106492 40.832C0.00608525 40.6316 0.00228197 40.4176 0 40.2097C0 40.1057 0 40.0017 0 39.897C0 39.7922 0 39.6693 0 39.5554C0 39.4256 -5.66733e-10 39.2959 0.00532459 39.1661C0.0106492 38.8807 0.0182557 38.5953 0.0289049 38.3115C0.464 26.7715 5.81978 16.4869 14.0645 9.48699C14.1406 9.424 14.2113 9.36176 14.2851 9.29953C14.3589 9.23729 14.4319 9.17582 14.5065 9.1151C14.581 9.05438 14.6723 8.97925 14.756 8.9117C14.8396 8.84415 14.9225 8.77584 15.0062 8.7083L15.1949 8.55651L15.2047 8.54816L15.2169 8.53905L15.2527 8.51097L15.3135 8.46315L15.506 8.31136L15.5676 8.26431L15.7517 8.12314C15.757 8.12314 15.7615 8.11403 15.7676 8.11024C15.9388 7.98121 16.1099 7.85219 16.2834 7.72545C16.3777 7.65562 16.4728 7.58605 16.5686 7.51673C16.8622 7.30574 17.1586 7.09829 17.4578 6.89438L17.756 6.69326L18.0526 6.50276L18.3569 6.30847C18.4583 6.2432 18.5597 6.17919 18.6612 6.11645L18.9654 5.92671C19.1536 5.81034 19.342 5.69624 19.5306 5.58442L19.8022 5.42504C19.9771 5.32258 20.1528 5.2224 20.3285 5.12146C20.3351 5.11837 20.3415 5.11482 20.3475 5.11083C25.3805 2.2751 30.9743 0.572169 36.7366 0.121433C36.923 0.107013 37.1078 0.093352 37.2934 0.0812086L37.5931 0.0622346L37.8974 0.0455376C37.9993 0.0402249 38.0997 0.0349121 38.2017 0.0311173H38.2465L38.5554 0.018974L38.8847 0.0091075L39.2749 0H39.5343C39.6522 0 39.7701 0 39.8888 0H39.9595C40.1254 0 40.2909 0 40.4562 0H40.4745C40.6403 0 40.8054 0.00607168 40.9704 0.00986648C41.1355 0.0136613 41.2922 0.018974 41.4527 0.0250456H41.5029C41.6269 0.0303584 41.7524 0.0349121 41.8764 0.0417428C41.9243 0.0417428 41.9707 0.0462965 42.0186 0.0485734L42.5336 0.0774139C42.6933 0.0880393 42.8528 0.0994237 43.012 0.111567C43.1642 0.122951 43.3163 0.135854 43.4684 0.148756L43.8488 0.183668L44.3371 0.234518C44.5889 0.2626 44.8414 0.292958 45.0932 0.325594C48.4523 0.756334 51.742 1.6162 54.8813 2.88404C55.0935 2.96905 55.3065 3.05709 55.518 3.14589L55.8169 3.27415C55.9333 3.32424 56.0451 3.37509 56.163 3.42594L56.2437 3.46085C56.3669 3.5155 56.4898 3.5709 56.6126 3.62707C56.6993 3.66577 56.7852 3.70296 56.8712 3.74622C75.0258 12.1616 81.2989 30.4267 79.7821 43.8618Z" fill="#442E76"/>
<path d="M73.3333 62.0077C65.2947 53.0876 56.6901 44.352 50.9822 32.9289L40.8997 42.5783C42.2689 45.2408 43.5742 47.7704 44.9243 50.3903H34.2599C31.8327 44.3664 29.4944 38.5558 26.9972 32.3574C26.2145 32.7475 25.4523 32.9046 25.0263 33.3737C19.3336 39.6283 12.992 45.1436 6.30583 50.2704C6.19021 50.3599 6.06927 50.4442 5.94604 50.5224C5.79391 50.621 5.63645 50.7129 5.47748 50.8009L2.10929 52.8091L2.0918 52.819C3.26793 56.2755 4.91991 59.5522 7.00031 62.5549C7.05964 62.6422 7.11973 62.7287 7.18134 62.8152C11.2957 68.6592 17.076 73.5165 24.2459 76.6586C25.04 77.0062 25.8357 77.3255 26.6328 77.6164C38.0206 81.7725 49.6107 80.1756 58.8162 75.2948L58.9767 75.2136C63.7003 72.6817 67.7896 69.2846 70.8916 65.357C71.7625 64.255 72.6654 63.2319 73.3728 62.0547C73.3592 62.0365 73.3455 62.0229 73.3333 62.0077ZM47.3189 53.7016H52.1414V67.0062L47.3189 69.2459V53.7016ZM40.2448 56.6919H45.0521V69.7976C43.5696 70.0124 42.0414 70.2356 40.2448 70.4966V56.6919ZM33.2262 59.324H38.1058V70.4261C36.44 70.294 34.8897 70.168 33.2262 70.0352V59.324ZM26.1635 61.9804H31.0545V69.5092L26.1627 68.1552L26.1635 61.9804ZM18.9989 64.0819H23.9196V67.3743L18.795 64.7399L18.9989 64.0819ZM25.5618 71.5061C21.7631 69.5282 18.3774 66.7322 14.8366 64.2656C14.4882 64.0227 14.3102 63.5286 14.0668 63.1271V63.1211L14.0782 63.1271C17.165 64.705 20.1855 66.44 23.3582 67.8259C29.9759 70.7228 36.8621 72.2126 44.0983 70.8458C48.7383 69.9699 52.804 67.8904 56.4125 64.5593L54.1724 62.586C57.3466 61.1 60.3276 59.702 63.7452 58.0998C63.4318 61.8521 63.158 65.1095 62.8598 68.6713L60.1937 67.2445C57.8129 68.7814 55.6229 70.4382 53.2292 71.6996C44.0032 76.5501 34.6593 76.2473 25.5611 71.5091L25.5618 71.5061Z" fill="#E6352F"/>
<path d="M14.0709 62.801H14.0625C14.0626 62.799 14.0626 62.7969 14.0625 62.7949L14.0709 62.801Z" fill="black"/>
<path d="M79.5407 45.5796C79.6084 45.1788 79.6685 44.7751 79.7209 44.3652C79.7019 44.5375 79.6829 44.7098 79.6616 44.8813C79.6403 45.0529 79.619 45.2244 79.5954 45.3951C79.5265 45.9082 79.4474 46.4182 79.3581 46.9252C79.3282 47.0937 79.2975 47.2619 79.2661 47.4299C79.2032 47.7669 79.1355 48.1021 79.063 48.4355L78.7344 48.1145L79.0386 48.409C79.2897 47.4944 79.3756 46.5594 79.5407 45.5796Z" fill="#442E76"/>
<path d="M79.7816 43.8633C79.7625 44.031 79.7428 44.198 79.7207 44.3642C79.7397 44.198 79.7565 44.0325 79.7709 43.8648L79.7816 43.8633Z" fill="#442E76"/>
<path d="M79.9584 40.007C79.9584 41.3079 79.8963 42.5935 79.7721 43.864C79.7576 44.0318 79.7409 44.1972 79.7219 44.3634C79.6694 44.7748 79.6093 45.1785 79.5416 45.5778C79.3765 46.5576 79.2906 47.4926 79.0411 48.4056L78.7368 48.1112C77.1394 46.5864 75.4561 45.1118 74.1478 43.5969C68.4908 37.0508 64.3475 29.5114 60.4446 21.8292C58.8974 18.788 57.4529 15.6945 55.9567 12.6139H48.891C47.4701 18.7106 44.524 24.0408 41.0691 29.1175C40.0598 30.602 38.9393 32.0083 37.6393 33.7562C37.1601 32.8902 36.6786 32.3339 36.525 31.6964C35.3612 26.8595 34.2552 22.0106 33.1446 17.1585C32.9735 16.4072 32.8837 15.6406 32.7438 14.7906H27.105C26.2683 17.1767 25.6202 19.5819 24.6177 21.8223C21.1803 29.5053 16.2147 36.2031 11.0308 42.7362C9.5392 44.6139 7.97529 46.4323 6.41671 48.2538L2.07413 52.4524C1.09018 49.5553 0.450149 46.5531 0.167162 43.5073C0.159556 43.4314 0.15271 43.3555 0.146625 43.2796C0.135976 43.1665 0.126848 43.0519 0.11848 42.9396C0.11848 42.9176 0.114677 42.8956 0.113156 42.8736C0.102507 42.7332 0.0926182 42.592 0.0834903 42.4493C0.0834903 42.4258 0.079687 42.4008 0.0781657 42.3734C0.0720805 42.2649 0.0652346 42.1564 0.0591493 42.0478C0.0591493 42.0258 0.0591493 42.0046 0.0591493 41.9826C0.0500214 41.8065 0.0416542 41.6289 0.0340477 41.4513C0.0336448 41.4475 0.0336448 41.4437 0.0340477 41.4399V41.4323C0.016299 40.9587 0.00767827 40.4834 0.00818537 40.0062C0.00564985 39.4441 0.0160455 38.8848 0.0393723 38.3282C0.921733 17.0773 18.467 0.119141 39.9814 0.119141C62.0602 0.119141 79.9584 17.9774 79.9584 40.007Z" fill="#442E76"/>
<path d="M0.00380328 40.0053C0.00380328 40.4824 0.012424 40.9578 0.0296656 41.4314C0.0251016 41.2318 0.0152131 41.0314 0.0106492 40.8311C0.00608524 40.6307 0.00228197 40.4167 0 40.2087C0 40.1047 0 40.0007 0 39.896C0 39.7913 0 39.6683 0 39.5545C0 39.4247 -5.66733e-10 39.2949 0.00532459 39.1651C0.0106492 38.8798 0.0182557 38.5944 0.0289049 38.3105L0.0387934 38.325C0.0154667 38.8825 0.00380328 39.4427 0.00380328 40.0053Z" fill="#442E76"/>
<path d="M2.07437 52.4515L1.99831 52.469C0.825254 48.9073 0.16301 45.1979 0.03125 41.4512C0.0388566 41.628 0.0472238 41.8056 0.0563516 41.9824C0.0563516 42.0045 0.0563516 42.0257 0.0563516 42.0477C0.0624369 42.1562 0.0692828 42.2648 0.075368 42.3733C0.075368 42.3984 0.075368 42.4234 0.0806926 42.4492C0.0898205 42.5919 0.099709 42.7331 0.110358 42.8735C0.110358 42.8955 0.110358 42.9175 0.115683 42.9395C0.12405 43.0533 0.133178 43.1672 0.143827 43.2795C0.149912 43.3554 0.156758 43.4313 0.164365 43.5072C0.448396 46.5529 1.08944 49.5548 2.07437 52.4515Z" fill="#442E76"/>
</svg>
